<?xml version="1.0" encoding="iso-8859-1"?>
<!-- Generator: Adobe Illustrator 19.0.0, SVG Export Plug-In . SVG Version: 6.00 Build 0)  -->
<svg version="1.1" id="Layer_1" xmlns="http://www.w3.org/2000/svg" xmlns:xlink="http://www.w3.org/1999/xlink" x="0px" y="0px"
	 viewBox="0 0 512.012 512.012" style="enable-background:new 0 0 512.012 512.012;" xml:space="preserve">
<g transform="translate(0 -1)">
	<g>
		<path d="M487.942,19.044c-1.736-9.06-8.882-16.095-17.965-17.697c-9.105-1.625-18.232,2.56-22.951,10.463l-18.098,30.141
			c-7.725,12.889-18.365,23.485-31.143,31.076c-36.575-32.189-82.899-49.753-132.029-49.753c-49.174,0-95.455,17.564-132.007,49.753
			c-12.8-7.591-23.441-18.187-31.165-31.076L84.486,11.809C79.767,3.907,70.573-0.278,61.535,1.347
			C52.453,2.95,45.307,9.984,43.571,19.044c-0.779,3.851-16.228,87.686,34.193,135.68c-7.133,19.307-11.209,39.323-12.143,59.768
			c-45.238,49.524-56.734,112.79-30.597,170.901C63.61,448.99,128.43,489.067,203.377,491.027l-4.402,21.985l86.795-39.446
			c3.695-1.692,3.695-6.945,0-8.615l-86.795-40.982l4.357,22.533c-57.451-1.859-106.377-31.931-127.704-79.363
			c-12.741-28.314-13.006-57.768-1.536-85.151c25.047,82.084,101.484,141.981,191.666,141.981
			c110.481,0,200.348-89.889,200.348-200.348c0-23.619-4.163-46.726-12.355-68.897C504.17,106.73,488.721,22.895,487.942,19.044z
			 M268.806,145.597l24.376-41.695l39.847-1.514c13-0.267,22.617,9.127,23.107,21.415c0.467,12.288-9.127,22.617-21.393,23.085
			l-15.471,0.579l-12.043,20.614c-4.141,7.079-11.576,11.019-19.233,11.019c-3.829,0-7.68-0.979-11.219-3.05
			C266.179,169.839,262.595,156.216,268.806,145.597z M175.377,123.804c0.467-11.999,10.329-21.415,22.216-21.415h0.89l39.847,1.514
			l24.376,41.695c6.211,10.618,2.627,24.242-7.969,30.453c-3.539,2.07-7.391,3.05-11.219,3.05c-7.658,0-15.093-3.94-19.233-11.019
			l-12.043-20.614l-15.471-0.579C184.504,146.421,174.91,136.092,175.377,123.804z M154.452,212.491
			c0-18.432,14.959-33.391,33.391-33.391s33.391,14.959,33.391,33.391c0,18.432-14.959,33.391-33.391,33.391
			C169.411,245.882,154.452,230.923,154.452,212.491z M348.277,328.404c-4.341,4.341-10.04,6.522-15.738,6.522
			c-5.699,0-11.398-2.182-15.738-6.522c-14.67-14.692-29.095-15.738-51.044-15.738c-21.882,0-36.063,0.757-51.044,15.738
			c-8.704,8.704-22.773,8.704-31.477,0c-8.704-8.704-8.704-22.773,0-31.477c28.783-28.783,59.837-28.783,82.521-28.783
			c21.393,0,53.738,0,82.521,28.783C356.981,305.631,356.981,319.699,348.277,328.404z M343.669,245.882
			c-18.432,0-33.391-14.959-33.391-33.391s14.959-33.391,33.391-33.391c18.432,0,33.391,14.959,33.391,33.391
			C377.06,230.923,362.101,245.882,343.669,245.882z"/>
	</g>
</g>
<g>
</g>
<g>
</g>
<g>
</g>
<g>
</g>
<g>
</g>
<g>
</g>
<g>
</g>
<g>
</g>
<g>
</g>
<g>
</g>
<g>
</g>
<g>
</g>
<g>
</g>
<g>
</g>
<g>
</g>
</svg>
