<svg xmlns="http://www.w3.org/2000/svg" xmlns:xlink="http://www.w3.org/1999/xlink" version="1.1" x="0px" y="0px" viewBox="0 0 24 30" enable-background="new 0 0 24 24" xml:space="preserve"><path d="M12,2C6.5,2,2,6.5,2,12s4.5,10,10,10s10-4.5,10-10S17.5,2,12,2z M6,10c0-0.7,0.3-1.2,0.8-1.6L6.2,7.6C5.9,7.2,6,6.5,6.4,6.2  C6.9,5.9,7.5,6,7.8,6.4l1.8,2.4c0,0,0,0,0,0C9.9,9.1,10,9.5,10,10c0,1.1-0.9,2-2,2S6,11.1,6,10z M12,20c-1.7,0-3-1.3-3-3  c0-1.7,1.3-3,3-3c1.7,0,3,1.3,3,3C15,18.7,13.7,20,12,20z M16,12c-1.1,0-2-0.9-2-2c0-0.5,0.2-0.9,0.4-1.2c0,0,0,0,0,0l1.8-2.4  c0.3-0.4,1-0.5,1.4-0.2c0.4,0.3,0.5,1,0.2,1.4l-0.6,0.8C17.7,8.8,18,9.3,18,10C18,11.1,17.1,12,16,12z"/><text x="0" y="39" fill="#000000" font-size="5px" font-weight="bold" font-family="'Helvetica Neue', Helvetica, Arial-Unicode, Arial, Sans-serif">Created by Creative Stall</text><text x="0" y="44" fill="#000000" font-size="5px" font-weight="bold" font-family="'Helvetica Neue', Helvetica, Arial-Unicode, Arial, Sans-serif">from the Noun Project</text></svg>