<svg xmlns="http://www.w3.org/2000/svg" xmlns:xlink="http://www.w3.org/1999/xlink" version="1.1" x="0px" y="0px" viewBox="0 0 207.057 345.94124999999997" style="enable-background:new 0 0 207.057 276.753;" xml:space="preserve"><g><path d="M7.196,275.5c1.717,0.805,3.523,1.186,5.301,1.186c4.697,0,9.197-2.66,11.324-7.195   c13.009-27.738,16.411-54.033,16.411-73.944c-0.003-5.078-0.225-9.741-0.564-13.929c0.092,0.042,0.177,0.092,0.271,0.132   c0.316,0.142,5.372,2.581,10.252,9.033c4.901,6.558,10.09,17.21,10.148,35.925c0.002,9.35-1.361,20.71-4.93,34.389   c-1.744,6.679,2.259,13.507,8.94,15.249c1.058,0.275,2.118,0.407,3.163,0.407c5.551,0.001,10.62-3.726,12.088-9.348   c4.023-15.438,5.738-28.915,5.738-40.697c0.076-25.124-8.062-42.553-16.861-53.094c-3.754-4.535-7.521-7.819-10.709-10.143   c-6.096-20.151-2.554-31.492,5.042-44.535l19.077,9.094c1.094,0.52,2.271,0.777,3.441,0.777c1.666,0.001,3.32-0.518,4.713-1.533   c2.371-1.729,3.607-4.621,3.217-7.529l-5.021-37.479c-0.588-4.379-4.613-7.454-8.992-6.866c-4.379,0.587-7.453,4.613-6.866,8.992   l3.06,22.839l-13.742-6.55c-0.283-0.135-0.571-0.247-0.861-0.347L48.586,124.01c-1.437,2.772-4.125,4.766-7.188,5.337   c-0.606,0.114-1.233,0.173-1.864,0.173c-2.494,0-4.896-0.908-6.76-2.554L7.182,104.44c-3.912,22.556-0.813,37.716,4.387,59.445   c0.081,0.523,0.184,1.047,0.334,1.568l0,0c0.205,0.726,3.334,12.489,3.328,30.094c0,17.1-2.92,39.616-14.044,63.327   C-1.746,265.125,0.944,272.568,7.196,275.5z"/><path d="M57.978,73.462c1.618,0,3.236,0.394,4.682,1.141c2.423,1.253,4.125,3.352,4.948,5.75c2.558-3.651,4.063-8.094,4.063-12.892   c0-12.427-10.073-22.5-22.5-22.5s-22.5,10.073-22.5,22.5c0,10.502,7.194,19.322,16.923,21.803l5.322-10.288   C50.673,75.575,54.145,73.462,57.978,73.462z"/><path d="M10.674,104.488l23.554,20.828c1.47,1.299,3.37,2.004,5.306,2.004c0.487,0,0.977-0.044,1.461-0.135   c2.415-0.45,4.508-2.006,5.638-4.187l18.446-35.66c2.03-3.925,0.496-8.752-3.43-10.781c-3.925-2.031-8.752-0.496-10.78,3.429   L37.136,106.53l-8.571-7.579c2.271,0.279,3.742,0.503,3.742,0.503l4.175,3.56l3.788-7.323c-7.913-1.767-15.935-3.559-22.546-5.029   c-0.21-0.048-0.421-0.07-0.633-0.086c-2.569-0.36-5.265,0.531-7.111,2.619c-1.276,1.444-1.936,3.22-2,5.006   C7.897,100.512,8.809,102.838,10.674,104.488z"/><polygon points="83.445,47.755 84.641,49.663 197.485,4.667 195.152,0  "/><polygon points="102.34,89.128 205.438,109.262 207.057,103.996 102.807,86.746  "/></g><text x="0" y="291.753" fill="#000000" font-size="5px" font-weight="bold" font-family="'Helvetica Neue', Helvetica, Arial-Unicode, Arial, Sans-serif">Created by Gan Khoon Lay</text><text x="0" y="296.753" fill="#000000" font-size="5px" font-weight="bold" font-family="'Helvetica Neue', Helvetica, Arial-Unicode, Arial, Sans-serif">from the Noun Project</text></svg>